PathFileType	4	(X/Y/Z)	D:\Long Term Storage\D'Arcy Smith\Coord19.trc
DataRate	CameraRate	NumFrames	NumMarkers	Units	OrigDataRate	OrigDataStartFrame	OrigNumFrames
120.00	120.00	      65	4	mm	120.00	1	      4903
Frame#	Time	M1			M2			M3			M4			
		X1	Y1	Z1	X2	Y2	Z2	X3	Y3	Z3	X4	Y4	Z4	

1	0.000	677.68634	467.23904	88.29146	947.67255	283.02298	347.61502							
2	0.008	677.89935	464.11292	91.51068	946.36078	285.56671	362.77286							
3	0.017	678.07831	460.37848	94.83808	944.66528	289.09158	376.59421							
4	0.025	678.21600	456.07898	98.25661	943.30627	292.90567	392.02316							
5	0.033	678.56726	451.26456	101.80678	941.83704	297.32495	405.54230							
6	0.042	678.98706	445.97644	105.60249	940.23669	302.40720	418.90060							
7	0.050	679.62830	440.12314	109.58171	938.65308	307.34296	431.52539							
8	0.058	680.12805	433.14014	114.88681	937.08209	312.43356	443.32620							
9	0.067	680.72278	426.28537	120.30271	935.51135	318.20074	454.59430							
10	0.075	681.41656	419.03638	126.73173	933.89874	323.53058	465.62680							
11	0.083	682.14117	411.26401	133.81218	931.26892	329.23834	474.56699							
12	0.092	682.68738	403.03934	142.14333	929.54254	334.81705	483.38049							
13	0.100	683.11853	394.49457	151.88861	928.08130	340.38873	493.76099							
14	0.108	683.43402	385.63760	162.97620	926.63824	345.05447	502.38785							
15	0.117	683.51788	376.57288	175.58109	925.08960	350.04349	510.03253							
16	0.125	683.14532	367.56567	190.08350	923.84625	354.76151	516.95142							
17	0.133	682.29681	358.79935	206.31960	922.53748	359.14728	523.64258							
18	0.142	680.94550	351.03616	225.00427	921.11700	363.42480	529.57617							
19	0.150	678.92706	343.03925	244.31471	919.82611	367.54904	534.59680							
20	0.158	676.41479	336.47281	265.68967	918.68213	371.42715	539.14777							
21	0.167	673.27313	331.38864	288.85168	917.39038	374.85574	542.90674							
22	0.175	669.17810	327.58798	313.04425	916.30542	377.90982	546.29285							
23	0.183	664.74420	325.72147	338.04889	915.20465	380.72711	548.62646							
24	0.192	659.90424	326.00717	363.64688	914.18347	382.76678	549.81122							
25	0.200	654.40381	327.79193	388.47818	913.18024	384.62625	551.51105							
26	0.208	648.74969	331.24454	412.74597	912.19116	385.90646	552.08624							
27	0.217	643.37878	336.74942	436.13718	911.22137	386.86188	551.88232							
28	0.225	637.80011	343.13849	458.17838	910.31329	387.18784	551.51215							
29	0.233	632.66290	349.79523	478.68924	909.56421	387.10989	550.63434							
30	0.242	627.80188	357.45044	496.97897	908.71790	386.69974	548.60022							
31	0.250	623.24835	365.47360	513.28473	907.94257	385.79047	546.20319							
32	0.258	619.22449	373.40305	527.72583	907.37006	384.32242	543.15295							
33	0.267	615.74518	380.78592	540.13593	906.71088	382.36588	539.84131							
34	0.275	613.07715	387.81259	550.35278	906.17383	380.16147	535.60065							
35	0.283	610.83325	393.79102	558.79706	905.63110	377.42880	530.65656							
36	0.292	609.48987	398.94794	565.19250	905.27954	374.49731	525.32269							
37	0.300	608.62903	402.91122	569.67786	904.95227	371.44254	519.16077							
38	0.308	608.29504	405.40070	572.21509	904.56024	367.71844	513.15216							
39	0.317	608.48199	406.38071	573.07928	904.30872	363.85156	505.88623							
40	0.325	609.14447	406.06937	572.10999	904.10840	359.65881	498.19504							
41	0.333	610.41028	404.46722	569.62030	903.86676	355.30334	490.49701							
42	0.342	612.15204	401.82605	565.41156	903.68237	350.71649	481.93774							
43	0.350	614.35376	398.20313	559.81335	903.74121	346.08325	472.66882							
44	0.358	616.37299	393.96133	553.04559	903.79279	341.03763	463.25552							
45	0.367	618.73297	389.09109	544.77515	904.03668	336.25839	453.03448							
46	0.375	621.38751	383.91785	534.98529	904.36920	331.30927	442.62585							
47	0.383	624.24951	378.71994	524.30981	904.77679	326.43036	431.53745							
48	0.392	627.02234	373.49207	512.37231	905.28290	321.81354	420.09891							
49	0.400	629.35840	367.97989	499.40018	905.78278	317.37585	408.43961							
50	0.408	632.59613	363.29092	485.45416	906.48260	313.25754	395.89703							
51	0.417	635.50720	358.66333	470.39316	907.08710	309.12668	383.22095							
52	0.425	638.39459	354.26382	452.79852	907.97253	305.68130	370.12582							
53	0.433	640.93719	350.48770	435.95871	908.74377	302.64276	356.70001							
54	0.442	643.69684	346.91238	417.54889	909.92603	299.87006	342.86136							
55	0.450	645.87933	343.75760	398.17789	910.55267	297.77063	328.70929							
56	0.458	648.35925	341.79935	378.31750	912.10278	295.36581	313.81583							
57	0.467	650.32642	340.72961	357.30032	913.03107	294.45514	299.21863							
58	0.475	652.07794	340.53616	336.43802	914.23059	293.92831	284.57907							
59	0.483	653.63422	341.57913	315.43634	916.06061	293.82187	270.76297							
60	0.492	654.78204	343.80212	294.49570	916.98370	294.48871	255.83897							
61	0.500	655.80005	346.94415	273.96274	918.28711	295.64508	241.10924							
62	0.508	656.26440	351.07013	253.90723	919.49762	297.36096	226.86507							
63	0.517	656.44604	356.16586	234.33498	920.70441	299.58377	212.52490							
64	0.525	656.32971	361.96973	215.38828	921.87329	302.35117	198.22470							
65	0.533	655.73108	368.36188	199.55788	923.00525	305.60034	183.93323							
